<?xml version="1.0" encoding="UTF-8" standalone="no"?>
<!DOCTYPE svg PUBLIC "-//W3C//DTD SVG 1.1//EN"
 "http://www.w3.org/Graphics/SVG/1.1/DTD/svg11.dtd">
<!-- Generated by graphviz version 2.24.0 (20090616.2323)
 -->
<!-- Title: G Pages: 1 -->
<svg width="556pt" height="355pt"
 viewBox="0.00 0.00 556.00 355.00" xmlns="http://www.w3.org/2000/svg" xmlns:xlink="http://www.w3.org/1999/xlink">
<g id="graph1" class="graph" transform="scale(1 1) rotate(0) translate(4 351)">
<title>G</title>
<polygon fill="white" stroke="white" points="-4,5 -4,-351 553,-351 553,5 -4,5"/>
<g id="graph2" class="cluster"><title>cluster_CubicMushroom</title>
<polyline fill="none" stroke="gray" points="82,-44 528,-44 "/>
<path fill="none" stroke="gray" d="M528,-44C534,-44 540,-50 540,-56"/>
<polyline fill="none" stroke="gray" points="540,-56 540,-327 "/>
<path fill="none" stroke="gray" d="M540,-327C540,-333 534,-339 528,-339"/>
<polyline fill="none" stroke="gray" points="528,-339 82,-339 "/>
<path fill="none" stroke="gray" d="M82,-339C76,-339 70,-333 70,-327"/>
<polyline fill="none" stroke="gray" points="70,-327 70,-56 "/>
<path fill="none" stroke="gray" d="M70,-56C70,-50 76,-44 82,-44"/>
<text text-anchor="middle" x="305" y="-325.1" font-family="Times,serif" font-size="11.00" fill="gray">CubicMushroom</text>
</g>
<g id="graph3" class="cluster"><title>cluster_CubicMushroom\Geospacial</title>
<polyline fill="none" stroke="gray" points="90,-52 520,-52 "/>
<path fill="none" stroke="gray" d="M520,-52C526,-52 532,-58 532,-64"/>
<polyline fill="none" stroke="gray" points="532,-64 532,-300 "/>
<path fill="none" stroke="gray" d="M532,-300C532,-306 526,-312 520,-312"/>
<polyline fill="none" stroke="gray" points="520,-312 90,-312 "/>
<path fill="none" stroke="gray" d="M90,-312C84,-312 78,-306 78,-300"/>
<polyline fill="none" stroke="gray" points="78,-300 78,-64 "/>
<path fill="none" stroke="gray" d="M78,-64C78,-58 84,-52 90,-52"/>
<text text-anchor="middle" x="305" y="-298.1" font-family="Times,serif" font-size="11.00" fill="gray">Geospacial</text>
</g>
<g id="graph4" class="cluster"><title>cluster_CubicMushroom\Geospacial\GeoPoints</title>
<polyline fill="none" stroke="gray" points="98,-160 512,-160 "/>
<path fill="none" stroke="gray" d="M512,-160C518,-160 524,-166 524,-172"/>
<polyline fill="none" stroke="gray" points="524,-172 524,-273 "/>
<path fill="none" stroke="gray" d="M524,-273C524,-279 518,-285 512,-285"/>
<polyline fill="none" stroke="gray" points="512,-285 98,-285 "/>
<path fill="none" stroke="gray" d="M98,-285C92,-285 86,-279 86,-273"/>
<polyline fill="none" stroke="gray" points="86,-273 86,-172 "/>
<path fill="none" stroke="gray" d="M86,-172C86,-166 92,-160 98,-160"/>
<text text-anchor="middle" x="305" y="-271.1" font-family="Times,serif" font-size="11.00" fill="gray">GeoPoints</text>
</g>
<!-- \\CubicMushroom\\Geospacial\\GeoPoints\\EastingNorthingGeoPoint -->
<g id="node4" class="node"><title>\\CubicMushroom\\Geospacial\\GeoPoints\\EastingNorthingGeoPoint</title>
<a xlink:href="db_src_CubicMushroom_Geospacial_GeoPoints_EastingNorthingGeoPoint.html" xlink:title="EastingNorthingGeoPoint" target="_parent">
<polygon fill="none" stroke="black" points="508,-258 338,-258 338,-222 508,-222 508,-258"/>
<text text-anchor="middle" x="423" y="-236.1" font-family="Courier,monospace" font-size="11.00">EastingNorthingGeoPoint</text>
</a>
</g>
<!-- \\CubicMushroom\\Geospacial\\GeoPoints\\GeoPoint -->
<g id="node5" class="node"><title>\\CubicMushroom\\Geospacial\\GeoPoints\\GeoPoint</title>
<a xlink:href="db_src_CubicMushroom_Geospacial_GeoPoints_GeoPoint.html" xlink:title="GeoPoint" target="_parent">
<polygon fill="none" stroke="black" points="164,-231 94,-231 94,-195 164,-195 164,-231"/>
<text text-anchor="middle" x="129" y="-209.1" font-family="Courier,monospace" font-size="11.00">GeoPoint</text>
</a>
</g>
<!-- \\CubicMushroom\\Geospacial\\GeoPoints\\EastingNorthingGeoPoint&#45;&gt;\\CubicMushroom\\Geospacial\\GeoPoints\\GeoPoint -->
<g id="edge6" class="edge"><title>\\CubicMushroom\\Geospacial\\GeoPoints\\EastingNorthingGeoPoint&#45;&gt;\\CubicMushroom\\Geospacial\\GeoPoints\\GeoPoint</title>
<path fill="none" stroke="black" d="M337.173,-232.118C283.936,-227.229 217.671,-221.143 174.399,-217.169"/>
<polygon fill="none" stroke="black" points="174.463,-213.661 164.185,-216.231 173.823,-220.631 174.463,-213.661"/>
</g>
<!-- \\CubicMushroom\\Geospacial\\GeoPoints\\LatitudeLongitudeGeoPoint -->
<g id="node6" class="node"><title>\\CubicMushroom\\Geospacial\\GeoPoints\\LatitudeLongitudeGeoPoint</title>
<a xlink:href="db_src_CubicMushroom_Geospacial_GeoPoints_LatitudeLongitudeGeoPoint.html" xlink:title="LatitudeLongitudeGeoPoint" target="_parent">
<polygon fill="none" stroke="black" points="515,-204 331,-204 331,-168 515,-168 515,-204"/>
<text text-anchor="middle" x="423" y="-182.1" font-family="Courier,monospace" font-size="11.00">LatitudeLongitudeGeoPoint</text>
</a>
</g>
<!-- \\CubicMushroom\\Geospacial\\GeoPoints\\LatitudeLongitudeGeoPoint&#45;&gt;\\CubicMushroom\\Geospacial\\GeoPoints\\GeoPoint -->
<g id="edge8" class="edge"><title>\\CubicMushroom\\Geospacial\\GeoPoints\\LatitudeLongitudeGeoPoint&#45;&gt;\\CubicMushroom\\Geospacial\\GeoPoints\\GeoPoint</title>
<path fill="none" stroke="black" d="M330.38,-194.506C278.4,-199.28 215.859,-205.023 174.409,-208.83"/>
<polygon fill="none" stroke="black" points="173.983,-205.354 164.345,-209.754 174.623,-212.325 173.983,-205.354"/>
</g>
<!-- \\CubicMushroom\\Geospacial\\Convert -->
<g id="node7" class="node"><title>\\CubicMushroom\\Geospacial\\Convert</title>
<a xlink:href="db_src_CubicMushroom_Geospacial_Convert.html" xlink:title="Convert" target="_parent">
<polygon fill="none" stroke="black" points="454,-150 392,-150 392,-114 454,-114 454,-150"/>
<text text-anchor="middle" x="423" y="-128.1" font-family="Courier,monospace" font-size="11.00">Convert</text>
</a>
</g>
<!-- \\CubicMushroom\\Geospacial\\ConvertTest -->
<g id="node8" class="node"><title>\\CubicMushroom\\Geospacial\\ConvertTest</title>
<a xlink:href="db_tests_CubicMushroom_Geospacial_Tests_ConvertTest.html" xlink:title="ConvertTest" target="_parent">
<polygon fill="none" stroke="black" points="468,-96 378,-96 378,-60 468,-60 468,-96"/>
<text text-anchor="middle" x="423" y="-74.1" font-family="Courier,monospace" font-size="11.00">ConvertTest</text>
</a>
</g>
<!-- \\PHPUnit_Framework_TestCase -->
<g id="node13" class="node"><title>\\PHPUnit_Framework_TestCase</title>
<ellipse fill="none" stroke="black" cx="129" cy="-18" rx="128.862" ry="18"/>
<text text-anchor="middle" x="129" y="-12.4" font-family="Times,serif" font-size="14.00" fill="gray">\PHPUnit_Framework_TestCase</text>
</g>
<!-- \\CubicMushroom\\Geospacial\\ConvertTest&#45;&gt;\\PHPUnit_Framework_TestCase -->
<g id="edge10" class="edge"><title>\\CubicMushroom\\Geospacial\\ConvertTest&#45;&gt;\\PHPUnit_Framework_TestCase</title>
<path fill="none" stroke="black" d="M377.707,-68.7565C333.581,-59.7512 265.474,-45.8517 211.68,-34.8735"/>
<polygon fill="none" stroke="black" points="212.309,-31.4298 201.811,-32.8595 210.909,-38.2884 212.309,-31.4298"/>
</g>
</g>
</svg>
